<mxfile host="app.diagrams.net" modified="2021-07-22T06:51:14.033Z" agent="5.0 (Windows NT 10.0; Win64; x64) AppleWebKit/537.36 (KHTML, like Gecko) Chrome/91.0.4472.164 Safari/537.36 Edg/91.0.864.71" etag="GI7u06jKw1dJYS3ROaRX" version="14.9.1" type="github">
  <diagram id="C5RBs43oDa-KdzZeNtuy" name="Page-1">
    <mxGraphModel dx="2069" dy="1831" grid="1" gridSize="10" guides="1" tooltips="1" connect="1" arrows="1" fold="1" page="1" pageScale="1" pageWidth="827" pageHeight="1169" math="0" shadow="0">
      <root>
        <mxCell id="WIyWlLk6GJQsqaUBKTNV-0" />
        <mxCell id="WIyWlLk6GJQsqaUBKTNV-1" parent="WIyWlLk6GJQsqaUBKTNV-0" />
        <mxCell id="WIyWlLk6GJQsqaUBKTNV-3" value="Start Date &lt;br&gt;&amp;lt;= Today" style="rounded=1;whiteSpace=wrap;html=1;fontSize=12;glass=0;strokeWidth=1;shadow=0;" parent="WIyWlLk6GJQsqaUBKTNV-1" vertex="1">
          <mxGeometry x="167.5" y="78.11999999999999" width="85" height="33.75" as="geometry" />
        </mxCell>
        <mxCell id="WIyWlLk6GJQsqaUBKTNV-4" value="Yes" style="rounded=0;html=1;jettySize=auto;orthogonalLoop=1;fontSize=11;endArrow=block;endFill=0;endSize=8;strokeWidth=1;shadow=0;labelBackgroundColor=none;edgeStyle=orthogonalEdgeStyle;" parent="WIyWlLk6GJQsqaUBKTNV-1" source="WIyWlLk6GJQsqaUBKTNV-6" target="WIyWlLk6GJQsqaUBKTNV-10" edge="1">
          <mxGeometry x="-1" y="-321" relative="1" as="geometry">
            <mxPoint x="21" y="-115" as="offset" />
          </mxGeometry>
        </mxCell>
        <mxCell id="WIyWlLk6GJQsqaUBKTNV-5" value="No" style="edgeStyle=orthogonalEdgeStyle;rounded=0;html=1;jettySize=auto;orthogonalLoop=1;fontSize=11;endArrow=block;endFill=0;endSize=8;strokeWidth=1;shadow=0;labelBackgroundColor=none;" parent="WIyWlLk6GJQsqaUBKTNV-1" source="WIyWlLk6GJQsqaUBKTNV-6" target="WIyWlLk6GJQsqaUBKTNV-7" edge="1">
          <mxGeometry x="-0.1111" y="18" relative="1" as="geometry">
            <mxPoint y="1" as="offset" />
          </mxGeometry>
        </mxCell>
        <mxCell id="WIyWlLk6GJQsqaUBKTNV-6" value="Previous Price exists?" style="rhombus;whiteSpace=wrap;html=1;shadow=0;fontFamily=Helvetica;fontSize=12;align=center;strokeWidth=1;spacing=6;spacingTop=-4;fillColor=#f5f5f5;strokeColor=#666666;fontColor=#333333;" parent="WIyWlLk6GJQsqaUBKTNV-1" vertex="1">
          <mxGeometry x="150" y="170" width="120" height="95" as="geometry" />
        </mxCell>
        <mxCell id="WIyWlLk6GJQsqaUBKTNV-7" value="Insert New price as Initial" style="rounded=1;whiteSpace=wrap;html=1;fontSize=12;glass=0;strokeWidth=1;shadow=0;fillColor=#fff2cc;strokeColor=#d6b656;" parent="WIyWlLk6GJQsqaUBKTNV-1" vertex="1">
          <mxGeometry x="360" y="197.5" width="120" height="40" as="geometry" />
        </mxCell>
        <mxCell id="WIyWlLk6GJQsqaUBKTNV-8" value="No" style="rounded=0;html=1;jettySize=auto;orthogonalLoop=1;fontSize=11;endArrow=block;endFill=0;endSize=8;strokeWidth=1;shadow=0;labelBackgroundColor=none;edgeStyle=orthogonalEdgeStyle;entryX=0.5;entryY=0;entryDx=0;entryDy=0;" parent="WIyWlLk6GJQsqaUBKTNV-1" source="WIyWlLk6GJQsqaUBKTNV-10" edge="1" target="puUOUJRcIxCyxZQvcFH1-1">
          <mxGeometry x="-1" y="103" relative="1" as="geometry">
            <mxPoint x="-13" y="-50" as="offset" />
            <mxPoint x="210" y="490" as="targetPoint" />
          </mxGeometry>
        </mxCell>
        <mxCell id="WIyWlLk6GJQsqaUBKTNV-9" value="Yes" style="edgeStyle=orthogonalEdgeStyle;rounded=0;html=1;jettySize=auto;orthogonalLoop=1;fontSize=11;endArrow=block;endFill=0;endSize=8;strokeWidth=1;shadow=0;labelBackgroundColor=none;" parent="WIyWlLk6GJQsqaUBKTNV-1" source="WIyWlLk6GJQsqaUBKTNV-10" target="WIyWlLk6GJQsqaUBKTNV-12" edge="1">
          <mxGeometry x="-1" y="-85" relative="1" as="geometry">
            <mxPoint x="-30" y="-5" as="offset" />
            <Array as="points">
              <mxPoint x="360" y="360" />
              <mxPoint x="360" y="360" />
            </Array>
          </mxGeometry>
        </mxCell>
        <mxCell id="WIyWlLk6GJQsqaUBKTNV-10" value="Initial price exists?" style="rhombus;whiteSpace=wrap;html=1;shadow=0;fontFamily=Helvetica;fontSize=12;align=center;strokeWidth=1;spacing=6;spacingTop=-4;fillColor=#f5f5f5;strokeColor=#666666;fontColor=#333333;" parent="WIyWlLk6GJQsqaUBKTNV-1" vertex="1">
          <mxGeometry x="160" y="320" width="100" height="80" as="geometry" />
        </mxCell>
        <mxCell id="WIyWlLk6GJQsqaUBKTNV-12" value="Insert Old price as Initial" style="rounded=1;whiteSpace=wrap;html=1;fontSize=12;glass=0;strokeWidth=1;shadow=0;fillColor=#fff2cc;strokeColor=#d6b656;" parent="WIyWlLk6GJQsqaUBKTNV-1" vertex="1">
          <mxGeometry x="390" y="350" width="120" height="40" as="geometry" />
        </mxCell>
        <mxCell id="1uFGDJ0BJzNzpiRpG4Sb-0" value="Future Start&lt;br&gt;Date" style="rhombus;whiteSpace=wrap;html=1;fontSize=12;glass=0;strokeWidth=1;shadow=0;fillColor=#f5f5f5;strokeColor=#666666;fontColor=#333333;" parent="WIyWlLk6GJQsqaUBKTNV-1" vertex="1">
          <mxGeometry x="-165" y="62.5" width="110" height="65" as="geometry" />
        </mxCell>
        <mxCell id="1uFGDJ0BJzNzpiRpG4Sb-1" value="No action" style="whiteSpace=wrap;html=1;rounded=1;shadow=0;strokeWidth=1;glass=0;fillColor=#f8cecc;strokeColor=#b85450;" parent="WIyWlLk6GJQsqaUBKTNV-1" vertex="1">
          <mxGeometry x="-170" y="190" width="120" height="30" as="geometry" />
        </mxCell>
        <mxCell id="1uFGDJ0BJzNzpiRpG4Sb-3" value="Past End&lt;br&gt;Date" style="rhombus;whiteSpace=wrap;html=1;fontSize=12;glass=0;strokeWidth=1;shadow=0;fillColor=#f5f5f5;strokeColor=#666666;fontColor=#333333;" parent="WIyWlLk6GJQsqaUBKTNV-1" vertex="1">
          <mxGeometry y="60" width="110" height="70" as="geometry" />
        </mxCell>
        <mxCell id="1uFGDJ0BJzNzpiRpG4Sb-4" value="Compare new entry with old INIT" style="whiteSpace=wrap;html=1;rounded=1;shadow=0;strokeWidth=1;glass=0;" parent="WIyWlLk6GJQsqaUBKTNV-1" vertex="1">
          <mxGeometry x="10" y="200" width="90" height="50" as="geometry" />
        </mxCell>
        <mxCell id="puUOUJRcIxCyxZQvcFH1-1" value="Old price &lt;br&gt;&amp;gt;=&lt;br&gt;&amp;nbsp;30 days" style="rhombus;whiteSpace=wrap;html=1;fillColor=#f5f5f5;strokeColor=#666666;fontColor=#333333;" parent="WIyWlLk6GJQsqaUBKTNV-1" vertex="1">
          <mxGeometry x="165" y="485" width="90" height="90" as="geometry" />
        </mxCell>
        <mxCell id="puUOUJRcIxCyxZQvcFH1-7" value="Yes" style="edgeStyle=orthogonalEdgeStyle;rounded=0;html=1;jettySize=auto;orthogonalLoop=1;fontSize=11;endArrow=block;endFill=0;endSize=8;strokeWidth=1;shadow=0;labelBackgroundColor=none;" parent="WIyWlLk6GJQsqaUBKTNV-1" edge="1">
          <mxGeometry y="10" relative="1" as="geometry">
            <mxPoint as="offset" />
            <mxPoint x="255" y="530" as="sourcePoint" />
            <mxPoint x="390" y="380" as="targetPoint" />
            <Array as="points">
              <mxPoint x="350" y="530" />
              <mxPoint x="350" y="380" />
            </Array>
          </mxGeometry>
        </mxCell>
        <mxCell id="puUOUJRcIxCyxZQvcFH1-8" value="No" style="rounded=0;html=1;jettySize=auto;orthogonalLoop=1;fontSize=11;endArrow=block;endFill=0;endSize=8;strokeWidth=1;shadow=0;labelBackgroundColor=none;edgeStyle=orthogonalEdgeStyle;exitX=0.5;exitY=1;exitDx=0;exitDy=0;entryX=0.5;entryY=0;entryDx=0;entryDy=0;" parent="WIyWlLk6GJQsqaUBKTNV-1" source="puUOUJRcIxCyxZQvcFH1-1" target="puUOUJRcIxCyxZQvcFH1-22" edge="1">
          <mxGeometry x="-0.2308" y="10" relative="1" as="geometry">
            <mxPoint as="offset" />
            <mxPoint x="209.58" y="588" as="sourcePoint" />
            <mxPoint x="209.58" y="678" as="targetPoint" />
          </mxGeometry>
        </mxCell>
        <mxCell id="puUOUJRcIxCyxZQvcFH1-14" value="No" style="edgeStyle=orthogonalEdgeStyle;rounded=0;html=1;jettySize=auto;orthogonalLoop=1;fontSize=11;endArrow=block;endFill=0;endSize=8;strokeWidth=1;shadow=0;labelBackgroundColor=none;" parent="WIyWlLk6GJQsqaUBKTNV-1" edge="1">
          <mxGeometry x="-0.0907" y="14" relative="1" as="geometry">
            <mxPoint as="offset" />
            <mxPoint x="-55" y="94.5" as="sourcePoint" />
            <mxPoint y="95" as="targetPoint" />
            <Array as="points">
              <mxPoint x="-28" y="94" />
              <mxPoint y="95" />
            </Array>
          </mxGeometry>
        </mxCell>
        <mxCell id="puUOUJRcIxCyxZQvcFH1-15" value="No" style="edgeStyle=orthogonalEdgeStyle;rounded=0;html=1;jettySize=auto;orthogonalLoop=1;fontSize=11;endArrow=block;endFill=0;endSize=8;strokeWidth=1;shadow=0;labelBackgroundColor=none;entryX=0;entryY=0.5;entryDx=0;entryDy=0;" parent="WIyWlLk6GJQsqaUBKTNV-1" target="WIyWlLk6GJQsqaUBKTNV-3" edge="1">
          <mxGeometry x="-0.0583" y="15" relative="1" as="geometry">
            <mxPoint as="offset" />
            <mxPoint x="110" y="94.71000000000001" as="sourcePoint" />
            <mxPoint x="150" y="95" as="targetPoint" />
            <Array as="points">
              <mxPoint x="137" y="95" />
            </Array>
          </mxGeometry>
        </mxCell>
        <mxCell id="puUOUJRcIxCyxZQvcFH1-17" value="Yes" style="rounded=0;html=1;jettySize=auto;orthogonalLoop=1;fontSize=11;endArrow=block;endFill=0;endSize=8;strokeWidth=1;shadow=0;labelBackgroundColor=none;edgeStyle=orthogonalEdgeStyle;entryX=0.5;entryY=0;entryDx=0;entryDy=0;exitX=0.5;exitY=1;exitDx=0;exitDy=0;" parent="WIyWlLk6GJQsqaUBKTNV-1" source="1uFGDJ0BJzNzpiRpG4Sb-0" target="1uFGDJ0BJzNzpiRpG4Sb-1" edge="1">
          <mxGeometry x="0.04" y="180" relative="1" as="geometry">
            <mxPoint as="offset" />
            <mxPoint x="-110.29000000000048" y="130" as="sourcePoint" />
            <mxPoint x="-110.29000000000048" y="185" as="targetPoint" />
          </mxGeometry>
        </mxCell>
        <mxCell id="puUOUJRcIxCyxZQvcFH1-19" value="Yes" style="rounded=0;html=1;jettySize=auto;orthogonalLoop=1;fontSize=11;endArrow=block;endFill=0;endSize=8;strokeWidth=1;shadow=0;labelBackgroundColor=none;edgeStyle=orthogonalEdgeStyle;exitX=0.5;exitY=1;exitDx=0;exitDy=0;entryX=0.5;entryY=0;entryDx=0;entryDy=0;" parent="WIyWlLk6GJQsqaUBKTNV-1" source="WIyWlLk6GJQsqaUBKTNV-3" target="WIyWlLk6GJQsqaUBKTNV-6" edge="1">
          <mxGeometry x="1" y="120" relative="1" as="geometry">
            <mxPoint x="-110" y="120" as="offset" />
            <mxPoint x="220" y="275" as="sourcePoint" />
            <mxPoint x="310" y="180" as="targetPoint" />
          </mxGeometry>
        </mxCell>
        <mxCell id="puUOUJRcIxCyxZQvcFH1-20" value="Yes" style="rounded=0;html=1;jettySize=auto;orthogonalLoop=1;fontSize=11;endArrow=block;endFill=0;endSize=8;strokeWidth=1;shadow=0;labelBackgroundColor=none;edgeStyle=orthogonalEdgeStyle;entryX=0.5;entryY=0;entryDx=0;entryDy=0;exitX=0.5;exitY=1;exitDx=0;exitDy=0;" parent="WIyWlLk6GJQsqaUBKTNV-1" source="1uFGDJ0BJzNzpiRpG4Sb-3" target="1uFGDJ0BJzNzpiRpG4Sb-4" edge="1">
          <mxGeometry x="1" y="354" relative="1" as="geometry">
            <mxPoint x="-14" y="99" as="offset" />
            <mxPoint x="60" y="140" as="sourcePoint" />
            <mxPoint x="-100" y="200" as="targetPoint" />
            <Array as="points">
              <mxPoint x="55" y="180" />
              <mxPoint x="55" y="180" />
            </Array>
          </mxGeometry>
        </mxCell>
        <mxCell id="puUOUJRcIxCyxZQvcFH1-22" value="No action" style="whiteSpace=wrap;html=1;rounded=1;shadow=0;strokeWidth=1;glass=0;fillColor=#f8cecc;strokeColor=#b85450;" parent="WIyWlLk6GJQsqaUBKTNV-1" vertex="1">
          <mxGeometry x="150" y="640" width="120" height="30" as="geometry" />
        </mxCell>
        <mxCell id="puUOUJRcIxCyxZQvcFH1-27" value="" style="edgeStyle=orthogonalEdgeStyle;rounded=0;orthogonalLoop=1;jettySize=auto;html=1;" parent="WIyWlLk6GJQsqaUBKTNV-1" source="puUOUJRcIxCyxZQvcFH1-26" target="1uFGDJ0BJzNzpiRpG4Sb-0" edge="1">
          <mxGeometry relative="1" as="geometry" />
        </mxCell>
        <mxCell id="puUOUJRcIxCyxZQvcFH1-26" value="New Price in a Date range" style="rounded=1;whiteSpace=wrap;html=1;fillColor=#d5e8d4;strokeColor=#82b366;" parent="WIyWlLk6GJQsqaUBKTNV-1" vertex="1">
          <mxGeometry x="-310" y="74" width="90" height="42" as="geometry" />
        </mxCell>
        <mxCell id="puUOUJRcIxCyxZQvcFH1-29" value="VK11" style="text;html=1;strokeColor=none;fillColor=none;align=center;verticalAlign=middle;whiteSpace=wrap;rounded=0;" parent="WIyWlLk6GJQsqaUBKTNV-1" vertex="1">
          <mxGeometry x="-280" y="54" width="40" height="20" as="geometry" />
        </mxCell>
        <mxCell id="puUOUJRcIxCyxZQvcFH1-31" value="" style="endArrow=none;dashed=1;html=1;dashPattern=1 3;strokeWidth=2;" parent="WIyWlLk6GJQsqaUBKTNV-1" edge="1">
          <mxGeometry width="50" height="50" relative="1" as="geometry">
            <mxPoint x="-190" y="720" as="sourcePoint" />
            <mxPoint x="-190" as="targetPoint" />
          </mxGeometry>
        </mxCell>
        <mxCell id="puUOUJRcIxCyxZQvcFH1-32" value="" style="endArrow=none;dashed=1;html=1;dashPattern=1 3;strokeWidth=2;" parent="WIyWlLk6GJQsqaUBKTNV-1" edge="1">
          <mxGeometry width="50" height="50" relative="1" as="geometry">
            <mxPoint x="-190" y="720" as="sourcePoint" />
            <mxPoint x="620" y="720" as="targetPoint" />
          </mxGeometry>
        </mxCell>
        <mxCell id="puUOUJRcIxCyxZQvcFH1-33" value="" style="endArrow=none;dashed=1;html=1;dashPattern=1 3;strokeWidth=2;" parent="WIyWlLk6GJQsqaUBKTNV-1" edge="1">
          <mxGeometry width="50" height="50" relative="1" as="geometry">
            <mxPoint x="620" y="720" as="sourcePoint" />
            <mxPoint x="620" as="targetPoint" />
          </mxGeometry>
        </mxCell>
        <mxCell id="puUOUJRcIxCyxZQvcFH1-34" value="" style="endArrow=none;dashed=1;html=1;dashPattern=1 3;strokeWidth=2;" parent="WIyWlLk6GJQsqaUBKTNV-1" edge="1">
          <mxGeometry width="50" height="50" relative="1" as="geometry">
            <mxPoint x="-188" as="sourcePoint" />
            <mxPoint x="620" as="targetPoint" />
          </mxGeometry>
        </mxCell>
        <mxCell id="puUOUJRcIxCyxZQvcFH1-35" value="User Exit" style="text;html=1;fillColor=#f9f7ed;align=center;verticalAlign=middle;whiteSpace=wrap;rounded=0;strokeColor=#36393d;" parent="WIyWlLk6GJQsqaUBKTNV-1" vertex="1">
          <mxGeometry x="165" width="80" height="20" as="geometry" />
        </mxCell>
      </root>
    </mxGraphModel>
  </diagram>
</mxfile>
